<mxfile host="app.diagrams.net" modified="2023-03-13T13:42:28.019Z" agent="5.0 (X11)" etag="beh3-druv8S09QS6bxJh" version="21.0.2" type="github">
  <diagram name="Page-1" id="W_BNFXHgd7Bk-PhsKlOg">
    <mxGraphModel dx="2973" dy="2288" grid="1" gridSize="10" guides="1" tooltips="1" connect="1" arrows="1" fold="1" page="1" pageScale="1" pageWidth="850" pageHeight="1100" math="0" shadow="0">
      <root>
        <mxCell id="0" />
        <mxCell id="1" parent="0" />
        <mxCell id="dZubbr0zZH0bgpUT_jn3-5" style="edgeStyle=orthogonalEdgeStyle;rounded=0;orthogonalLoop=1;jettySize=auto;html=1;exitX=1;exitY=0.5;exitDx=0;exitDy=0;exitPerimeter=0;entryX=0;entryY=0.5;entryDx=0;entryDy=0;entryPerimeter=0;" parent="1" source="dZubbr0zZH0bgpUT_jn3-1" target="dZubbr0zZH0bgpUT_jn3-2" edge="1">
          <mxGeometry relative="1" as="geometry" />
        </mxCell>
        <mxCell id="dZubbr0zZH0bgpUT_jn3-9" style="edgeStyle=orthogonalEdgeStyle;rounded=0;orthogonalLoop=1;jettySize=auto;html=1;exitX=0.5;exitY=1;exitDx=0;exitDy=0;exitPerimeter=0;" parent="1" source="dZubbr0zZH0bgpUT_jn3-1" target="dZubbr0zZH0bgpUT_jn3-8" edge="1">
          <mxGeometry relative="1" as="geometry" />
        </mxCell>
        <mxCell id="dZubbr0zZH0bgpUT_jn3-29" style="edgeStyle=orthogonalEdgeStyle;rounded=0;orthogonalLoop=1;jettySize=auto;html=1;exitX=0;exitY=0.5;exitDx=0;exitDy=0;exitPerimeter=0;" parent="1" source="dZubbr0zZH0bgpUT_jn3-1" target="dZubbr0zZH0bgpUT_jn3-28" edge="1">
          <mxGeometry relative="1" as="geometry" />
        </mxCell>
        <mxCell id="dZubbr0zZH0bgpUT_jn3-1" value="&lt;div&gt;YOU&lt;/div&gt;&lt;div&gt;10.50.32.86&lt;br&gt;&lt;/div&gt;" style="verticalAlign=top;verticalLabelPosition=bottom;labelPosition=center;align=center;html=1;outlineConnect=0;fillColor=#d5e8d4;strokeColor=#82b366;gradientDirection=north;strokeWidth=2;shape=mxgraph.networks.pc;" parent="1" vertex="1">
          <mxGeometry x="150" y="230" width="100" height="70" as="geometry" />
        </mxCell>
        <mxCell id="dZubbr0zZH0bgpUT_jn3-4" style="edgeStyle=orthogonalEdgeStyle;rounded=0;orthogonalLoop=1;jettySize=auto;html=1;exitX=1;exitY=0.5;exitDx=0;exitDy=0;exitPerimeter=0;" parent="1" source="dZubbr0zZH0bgpUT_jn3-2" target="dZubbr0zZH0bgpUT_jn3-3" edge="1">
          <mxGeometry relative="1" as="geometry" />
        </mxCell>
        <mxCell id="dZubbr0zZH0bgpUT_jn3-7" style="edgeStyle=orthogonalEdgeStyle;rounded=0;orthogonalLoop=1;jettySize=auto;html=1;exitX=1;exitY=0.5;exitDx=0;exitDy=0;exitPerimeter=0;entryX=0;entryY=0.5;entryDx=0;entryDy=0;entryPerimeter=0;" parent="1" source="dZubbr0zZH0bgpUT_jn3-2" target="dZubbr0zZH0bgpUT_jn3-6" edge="1">
          <mxGeometry relative="1" as="geometry" />
        </mxCell>
        <mxCell id="dZubbr0zZH0bgpUT_jn3-16" style="edgeStyle=orthogonalEdgeStyle;rounded=0;orthogonalLoop=1;jettySize=auto;html=1;entryX=0;entryY=0.5;entryDx=0;entryDy=0;entryPerimeter=0;" parent="1" source="dZubbr0zZH0bgpUT_jn3-2" target="dZubbr0zZH0bgpUT_jn3-13" edge="1">
          <mxGeometry relative="1" as="geometry">
            <mxPoint x="370" y="-130" as="sourcePoint" />
          </mxGeometry>
        </mxCell>
        <mxCell id="dZubbr0zZH0bgpUT_jn3-18" style="edgeStyle=orthogonalEdgeStyle;rounded=0;orthogonalLoop=1;jettySize=auto;html=1;exitX=0.5;exitY=0.07;exitDx=0;exitDy=0;exitPerimeter=0;entryX=0;entryY=0.5;entryDx=0;entryDy=0;entryPerimeter=0;" parent="1" source="dZubbr0zZH0bgpUT_jn3-2" target="dZubbr0zZH0bgpUT_jn3-15" edge="1">
          <mxGeometry relative="1" as="geometry" />
        </mxCell>
        <mxCell id="dZubbr0zZH0bgpUT_jn3-23" style="rounded=0;orthogonalLoop=1;jettySize=auto;html=1;exitX=0;exitY=0;exitDx=0;exitDy=0;exitPerimeter=0;entryX=1;entryY=0.5;entryDx=0;entryDy=0;entryPerimeter=0;" parent="1" source="dZubbr0zZH0bgpUT_jn3-2" target="dZubbr0zZH0bgpUT_jn3-22" edge="1">
          <mxGeometry relative="1" as="geometry" />
        </mxCell>
        <mxCell id="dZubbr0zZH0bgpUT_jn3-2" value="&lt;div&gt;ATROPIA&lt;/div&gt;&lt;div&gt;FLOAT 10.50.33.33&lt;/div&gt;&lt;div&gt;22 (SSH)&lt;/div&gt;&lt;div&gt;INT 10.3.0.10&lt;br&gt;&lt;/div&gt;" style="verticalAlign=top;verticalLabelPosition=bottom;labelPosition=center;align=center;html=1;outlineConnect=0;fillColor=#ffe6cc;strokeColor=#d79b00;gradientDirection=north;strokeWidth=2;shape=mxgraph.networks.pc;" parent="1" vertex="1">
          <mxGeometry x="420" y="230" width="100" height="70" as="geometry" />
        </mxCell>
        <mxCell id="dZubbr0zZH0bgpUT_jn3-3" value="&lt;div&gt;VICTORIA HTTP SERVER&lt;/div&gt;&lt;div&gt;10.3.0.27&lt;br&gt;&lt;/div&gt;&lt;div&gt;80 (HTTP)&lt;br&gt;&lt;/div&gt;" style="verticalAlign=top;verticalLabelPosition=bottom;labelPosition=center;align=center;html=1;outlineConnect=0;fillColor=#f8cecc;strokeColor=#b85450;gradientDirection=north;strokeWidth=2;shape=mxgraph.networks.pc;" parent="1" vertex="1">
          <mxGeometry x="690" y="230" width="100" height="71" as="geometry" />
        </mxCell>
        <mxCell id="dZubbr0zZH0bgpUT_jn3-6" value="&lt;div&gt;Cortina&#39;s FTP Server&lt;/div&gt;&lt;div&gt;10.3.0.1&lt;/div&gt;&lt;div&gt;20 (FTP)&lt;br&gt;&lt;/div&gt;" style="verticalAlign=top;verticalLabelPosition=bottom;labelPosition=center;align=center;html=1;outlineConnect=0;fillColor=#f8cecc;strokeColor=#b85450;gradientDirection=north;strokeWidth=2;shape=mxgraph.networks.pc;" parent="1" vertex="1">
          <mxGeometry x="690" y="440" width="100" height="70" as="geometry" />
        </mxCell>
        <mxCell id="dZubbr0zZH0bgpUT_jn3-12" style="rounded=0;orthogonalLoop=1;jettySize=auto;html=1;exitX=1;exitY=0.07;exitDx=0;exitDy=0;exitPerimeter=0;entryX=0;entryY=0.85;entryDx=0;entryDy=0;entryPerimeter=0;" parent="1" source="dZubbr0zZH0bgpUT_jn3-8" target="dZubbr0zZH0bgpUT_jn3-2" edge="1">
          <mxGeometry relative="1" as="geometry" />
        </mxCell>
        <mxCell id="dZubbr0zZH0bgpUT_jn3-8" value="&lt;div&gt;PINELAND&lt;/div&gt;&lt;div&gt;10.50.22.92&lt;/div&gt;&lt;div&gt;23 (TELNET)&lt;/div&gt;&lt;div&gt;80 (HTTP)&lt;br&gt;&lt;/div&gt;&lt;div&gt;/usr/share/cctc/flag.txt&lt;/div&gt;&lt;div&gt;INT 10.2.0.1&lt;br&gt;&lt;/div&gt;" style="verticalAlign=top;verticalLabelPosition=bottom;labelPosition=center;align=center;html=1;outlineConnect=0;fillColor=#fff2cc;strokeColor=#d6b656;gradientDirection=north;strokeWidth=2;shape=mxgraph.networks.pc;" parent="1" vertex="1">
          <mxGeometry x="150" y="530" width="100" height="70" as="geometry" />
        </mxCell>
        <mxCell id="dZubbr0zZH0bgpUT_jn3-17" style="edgeStyle=orthogonalEdgeStyle;rounded=0;orthogonalLoop=1;jettySize=auto;html=1;entryX=0;entryY=0.5;entryDx=0;entryDy=0;entryPerimeter=0;" parent="1" source="dZubbr0zZH0bgpUT_jn3-10" target="dZubbr0zZH0bgpUT_jn3-14" edge="1">
          <mxGeometry relative="1" as="geometry">
            <Array as="points">
              <mxPoint x="470" y="-125" />
            </Array>
          </mxGeometry>
        </mxCell>
        <mxCell id="dZubbr0zZH0bgpUT_jn3-10" value="T3" style="text;html=1;align=center;verticalAlign=middle;resizable=0;points=[];autosize=1;strokeColor=none;fillColor=none;" parent="1" vertex="1">
          <mxGeometry x="460" y="240" width="40" height="30" as="geometry" />
        </mxCell>
        <mxCell id="dZubbr0zZH0bgpUT_jn3-11" value="T4" style="text;html=1;align=center;verticalAlign=middle;resizable=0;points=[];autosize=1;strokeColor=none;fillColor=none;" parent="1" vertex="1">
          <mxGeometry x="190" y="540" width="40" height="30" as="geometry" />
        </mxCell>
        <mxCell id="dZubbr0zZH0bgpUT_jn3-13" value="&lt;div&gt;10.2.0.1&lt;/div&gt;&lt;div&gt;23 (TELNET)&lt;/div&gt;&lt;div&gt;22 (SSH)&lt;/div&gt;&lt;div&gt;80 (HTTP)&lt;br&gt;&lt;/div&gt;" style="verticalAlign=top;verticalLabelPosition=bottom;labelPosition=center;align=center;html=1;outlineConnect=0;fillColor=#f8cecc;strokeColor=#b85450;gradientDirection=north;strokeWidth=2;shape=mxgraph.networks.pc;" parent="1" vertex="1">
          <mxGeometry x="520" y="20" width="100" height="70" as="geometry" />
        </mxCell>
        <mxCell id="dZubbr0zZH0bgpUT_jn3-14" value="&lt;div&gt;10.2.0.2&lt;/div&gt;&lt;div&gt;21 (FTP)&lt;/div&gt;&lt;div&gt;80 (HTTP)&lt;/div&gt;&lt;div&gt;Mohamads&lt;br&gt;&lt;/div&gt;" style="verticalAlign=top;verticalLabelPosition=bottom;labelPosition=center;align=center;html=1;outlineConnect=0;fillColor=#f8cecc;strokeColor=#b85450;gradientDirection=north;strokeWidth=2;shape=mxgraph.networks.pc;" parent="1" vertex="1">
          <mxGeometry x="520" y="-160" width="100" height="70" as="geometry" />
        </mxCell>
        <mxCell id="dZubbr0zZH0bgpUT_jn3-15" value="&lt;div&gt;10.2.0.3&lt;/div&gt;&lt;div&gt;23 (TELNET)&lt;/div&gt;&lt;div&gt;22 (SSH)&lt;br&gt;&lt;/div&gt;&lt;div&gt;Atlantica Server&lt;br&gt;&lt;/div&gt;" style="verticalAlign=top;verticalLabelPosition=bottom;labelPosition=center;align=center;html=1;outlineConnect=0;fillColor=#f8cecc;strokeColor=#b85450;gradientDirection=north;strokeWidth=2;shape=mxgraph.networks.pc;" parent="1" vertex="1">
          <mxGeometry x="520" y="-320" width="100" height="70" as="geometry" />
        </mxCell>
        <mxCell id="dZubbr0zZH0bgpUT_jn3-25" style="edgeStyle=orthogonalEdgeStyle;rounded=0;orthogonalLoop=1;jettySize=auto;html=1;exitX=0;exitY=0.5;exitDx=0;exitDy=0;exitPerimeter=0;entryX=1;entryY=0.5;entryDx=0;entryDy=0;entryPerimeter=0;" parent="1" source="dZubbr0zZH0bgpUT_jn3-22" target="dZubbr0zZH0bgpUT_jn3-24" edge="1">
          <mxGeometry relative="1" as="geometry" />
        </mxCell>
        <mxCell id="dZubbr0zZH0bgpUT_jn3-27" style="edgeStyle=orthogonalEdgeStyle;rounded=0;orthogonalLoop=1;jettySize=auto;html=1;exitX=0.5;exitY=0.07;exitDx=0;exitDy=0;exitPerimeter=0;entryX=1;entryY=0.5;entryDx=0;entryDy=0;entryPerimeter=0;" parent="1" source="dZubbr0zZH0bgpUT_jn3-22" target="dZubbr0zZH0bgpUT_jn3-26" edge="1">
          <mxGeometry relative="1" as="geometry">
            <Array as="points">
              <mxPoint x="240" y="-135" />
            </Array>
          </mxGeometry>
        </mxCell>
        <mxCell id="dZubbr0zZH0bgpUT_jn3-22" value="&lt;div&gt;10.4.0.1&lt;/div&gt;&lt;div&gt;22 (SSH)&lt;br&gt;&lt;/div&gt;" style="verticalAlign=top;verticalLabelPosition=bottom;labelPosition=center;align=center;html=1;outlineConnect=0;fillColor=#f8cecc;strokeColor=#b85450;gradientDirection=north;strokeWidth=2;shape=mxgraph.networks.pc;" parent="1" vertex="1">
          <mxGeometry x="190" y="20" width="100" height="70" as="geometry" />
        </mxCell>
        <mxCell id="dZubbr0zZH0bgpUT_jn3-24" value="&lt;div&gt;Mojave&lt;br&gt;&lt;/div&gt;&lt;div&gt;10.5.0.1&lt;/div&gt;&lt;div&gt;22 (SSH)&lt;br&gt;&lt;/div&gt;&lt;div&gt;80 (HTTP)&lt;br&gt;&lt;/div&gt;&lt;div&gt;21 (FTP)&lt;br&gt;&lt;/div&gt;&lt;div&gt;FTP &amp;gt; I find your lack of faith disturbing.&lt;/div&gt;&lt;div&gt;HTTP &amp;gt; Captain Kirk&lt;br&gt;&lt;/div&gt;" style="verticalAlign=top;verticalLabelPosition=bottom;labelPosition=center;align=center;html=1;outlineConnect=0;fillColor=#f8cecc;strokeColor=#b85450;gradientDirection=north;strokeWidth=2;shape=mxgraph.networks.pc;" parent="1" vertex="1">
          <mxGeometry y="20" width="100" height="70" as="geometry" />
        </mxCell>
        <mxCell id="dZubbr0zZH0bgpUT_jn3-26" value="&lt;div&gt;&lt;code&gt;Parumphia&lt;br&gt;&lt;/code&gt;&lt;/div&gt;&lt;div&gt;&lt;code&gt;10.5.0.57&lt;br&gt;&lt;/code&gt;&lt;/div&gt;&lt;div&gt;&lt;code&gt;21 (FTP&lt;/code&gt;&lt;/div&gt;&lt;div&gt;&lt;code&gt;80 (HTTP)&lt;br&gt;&lt;/code&gt;&lt;/div&gt;&lt;div&gt;&lt;code&gt;HTTP &amp;gt; Don&#39;t call me a mindless philosopher, you overweight blob of grease!&lt;/code&gt;&lt;/div&gt;&lt;div&gt;&lt;code&gt;FTP &amp;gt; I&#39;d just as soon kiss a wookiee!&lt;br&gt;&lt;/code&gt;&lt;/div&gt;" style="verticalAlign=top;verticalLabelPosition=bottom;labelPosition=center;align=center;html=1;outlineConnect=0;fillColor=#f8cecc;strokeColor=#b85450;gradientDirection=north;strokeWidth=2;shape=mxgraph.networks.pc;" parent="1" vertex="1">
          <mxGeometry y="-170" width="100" height="70" as="geometry" />
        </mxCell>
        <mxCell id="dZubbr0zZH0bgpUT_jn3-35" style="edgeStyle=orthogonalEdgeStyle;rounded=0;orthogonalLoop=1;jettySize=auto;html=1;exitX=0;exitY=0.5;exitDx=0;exitDy=0;exitPerimeter=0;" parent="1" source="dZubbr0zZH0bgpUT_jn3-28" target="dZubbr0zZH0bgpUT_jn3-33" edge="1">
          <mxGeometry relative="1" as="geometry">
            <Array as="points">
              <mxPoint x="-250" y="266" />
              <mxPoint x="-250" y="266" />
            </Array>
          </mxGeometry>
        </mxCell>
        <mxCell id="dZubbr0zZH0bgpUT_jn3-36" style="edgeStyle=orthogonalEdgeStyle;rounded=0;orthogonalLoop=1;jettySize=auto;html=1;exitX=0;exitY=0.5;exitDx=0;exitDy=0;exitPerimeter=0;entryX=1;entryY=0.5;entryDx=0;entryDy=0;entryPerimeter=0;" parent="1" source="dZubbr0zZH0bgpUT_jn3-28" target="dZubbr0zZH0bgpUT_jn3-34" edge="1">
          <mxGeometry relative="1" as="geometry" />
        </mxCell>
        <mxCell id="dZubbr0zZH0bgpUT_jn3-38" style="edgeStyle=orthogonalEdgeStyle;rounded=0;orthogonalLoop=1;jettySize=auto;html=1;exitX=0;exitY=0.5;exitDx=0;exitDy=0;exitPerimeter=0;entryX=1;entryY=0.5;entryDx=0;entryDy=0;entryPerimeter=0;" parent="1" source="dZubbr0zZH0bgpUT_jn3-28" target="dZubbr0zZH0bgpUT_jn3-37" edge="1">
          <mxGeometry relative="1" as="geometry" />
        </mxCell>
        <mxCell id="dZubbr0zZH0bgpUT_jn3-28" value="&lt;div&gt;data-collection-net-ssh-01&lt;br&gt;&lt;/div&gt;&lt;div&gt;FLOAT &lt;code&gt;10.50.31.103&lt;/code&gt;&lt;/div&gt;&lt;div&gt;&lt;code&gt;INT 192.168.0.10&lt;br&gt;&lt;/code&gt;&lt;/div&gt;&lt;div&gt;&lt;code&gt;23 (TELNET)&lt;br&gt;&lt;/code&gt;&lt;/div&gt;&lt;div&gt;10811 (SSH)&lt;br&gt;&lt;/div&gt;" style="verticalAlign=top;verticalLabelPosition=bottom;labelPosition=center;align=center;html=1;outlineConnect=0;fillColor=#fff2cc;strokeColor=#d6b656;gradientDirection=north;strokeWidth=2;shape=mxgraph.networks.pc;" parent="1" vertex="1">
          <mxGeometry x="-120" y="231" width="100" height="70" as="geometry" />
        </mxCell>
        <mxCell id="dZubbr0zZH0bgpUT_jn3-30" value="T5" style="text;html=1;align=center;verticalAlign=middle;resizable=0;points=[];autosize=1;strokeColor=none;fillColor=none;" parent="1" vertex="1">
          <mxGeometry x="-80" y="240" width="40" height="30" as="geometry" />
        </mxCell>
        <mxCell id="dy91sUaCtpftVn4W_1tJ-6" style="edgeStyle=orthogonalEdgeStyle;rounded=0;orthogonalLoop=1;jettySize=auto;html=1;exitX=0;exitY=0.5;exitDx=0;exitDy=0;exitPerimeter=0;" edge="1" parent="1" source="dZubbr0zZH0bgpUT_jn3-33">
          <mxGeometry relative="1" as="geometry">
            <mxPoint x="-600" y="267" as="targetPoint" />
          </mxGeometry>
        </mxCell>
        <mxCell id="dy91sUaCtpftVn4W_1tJ-7" value="172.16.0.0/24" style="edgeLabel;html=1;align=center;verticalAlign=middle;resizable=0;points=[];" vertex="1" connectable="0" parent="dy91sUaCtpftVn4W_1tJ-6">
          <mxGeometry x="0.3703" y="2" relative="1" as="geometry">
            <mxPoint x="84" y="-2" as="offset" />
          </mxGeometry>
        </mxCell>
        <mxCell id="dZubbr0zZH0bgpUT_jn3-33" value="&lt;div&gt;data-collection-net-ssh-04&lt;br&gt;&lt;/div&gt;&lt;div&gt;192.168.0.40&lt;/div&gt;&lt;div&gt;5555 (????)&lt;br&gt;&lt;/div&gt;&lt;div&gt;80 (HTTP)&lt;br&gt;&lt;/div&gt;" style="verticalAlign=top;verticalLabelPosition=bottom;labelPosition=center;align=center;html=1;outlineConnect=0;fillColor=#f8cecc;strokeColor=#b85450;gradientDirection=north;strokeWidth=2;shape=mxgraph.networks.pc;" parent="1" vertex="1">
          <mxGeometry x="-390" y="232" width="100" height="70" as="geometry" />
        </mxCell>
        <mxCell id="dZubbr0zZH0bgpUT_jn3-34" value="&lt;div&gt;192.168.0.30&lt;/div&gt;&lt;div&gt;80 (HTTP)&lt;br&gt;&lt;/div&gt;&lt;div&gt;4444 (FLAG)&lt;br&gt;&lt;/div&gt;" style="verticalAlign=top;verticalLabelPosition=bottom;labelPosition=center;align=center;html=1;outlineConnect=0;fillColor=#f8cecc;strokeColor=#b85450;gradientDirection=north;strokeWidth=2;shape=mxgraph.networks.pc;" parent="1" vertex="1">
          <mxGeometry x="-390" y="440" width="100" height="70" as="geometry" />
        </mxCell>
        <mxCell id="dy91sUaCtpftVn4W_1tJ-4" style="edgeStyle=orthogonalEdgeStyle;rounded=0;orthogonalLoop=1;jettySize=auto;html=1;exitX=0;exitY=0.5;exitDx=0;exitDy=0;exitPerimeter=0;" edge="1" parent="1" source="dZubbr0zZH0bgpUT_jn3-37" target="dy91sUaCtpftVn4W_1tJ-2">
          <mxGeometry relative="1" as="geometry" />
        </mxCell>
        <mxCell id="dZubbr0zZH0bgpUT_jn3-37" value="&lt;div&gt;Net-SSH-02&lt;br&gt;&lt;/div&gt;&lt;div&gt;192.168.0.20&lt;/div&gt;&lt;div&gt;21 (FTP)&lt;/div&gt;&lt;div&gt;80 (HTTP)&lt;br&gt;&lt;/div&gt;&lt;div&gt;3333 (ATL SSH)&lt;br&gt;&lt;/div&gt;&lt;div&gt;Flag(&amp;lt;&amp;gt; &amp;lt;&amp;gt; &amp;lt;&amp;gt; &amp;lt;&amp;gt;)&lt;br&gt;&lt;/div&gt;" style="verticalAlign=top;verticalLabelPosition=bottom;labelPosition=center;align=center;html=1;outlineConnect=0;fillColor=#f8cecc;strokeColor=#b85450;gradientDirection=north;strokeWidth=2;shape=mxgraph.networks.pc;" parent="1" vertex="1">
          <mxGeometry x="-390" y="650" width="100" height="70" as="geometry" />
        </mxCell>
        <mxCell id="dy91sUaCtpftVn4W_1tJ-2" value="&lt;div&gt;192.168.0.50&lt;/div&gt;&lt;div&gt;21 (FTP)&lt;br&gt;&lt;/div&gt;&lt;div&gt;80 (HTTP)&lt;/div&gt;&lt;div&gt;FTP &amp;gt; &amp;lt;&amp;gt;&amp;lt; &amp;lt;&amp;gt;&amp;lt; &amp;lt;&amp;gt;&amp;lt; &amp;lt;&amp;gt;&amp;lt;&lt;br&gt;&lt;/div&gt;" style="verticalAlign=top;verticalLabelPosition=bottom;labelPosition=center;align=center;html=1;outlineConnect=0;fillColor=#f8cecc;strokeColor=#b85450;gradientDirection=north;strokeWidth=2;shape=mxgraph.networks.pc;" vertex="1" parent="1">
          <mxGeometry x="-630" y="651" width="100" height="70" as="geometry" />
        </mxCell>
        <mxCell id="dy91sUaCtpftVn4W_1tJ-8" value="&lt;div&gt;172.16.0.60&lt;/div&gt;&lt;div&gt;21 (FTP)&lt;/div&gt;&lt;div&gt;23 (TELNET)&lt;/div&gt;&lt;div&gt;80 (HTTP)&lt;/div&gt;&lt;div&gt;&lt;br&gt;&lt;/div&gt;" style="verticalAlign=top;verticalLabelPosition=bottom;labelPosition=center;align=center;html=1;outlineConnect=0;fillColor=#f8cecc;strokeColor=#b85450;gradientDirection=north;strokeWidth=2;shape=mxgraph.networks.pc;" vertex="1" parent="1">
          <mxGeometry x="-700" y="240" width="100" height="70" as="geometry" />
        </mxCell>
      </root>
    </mxGraphModel>
  </diagram>
</mxfile>
